<svg width="262" height="93" viewBox="0 0 262 93" fill="none" xmlns="http://www.w3.org/2000/svg">
<circle cx="20.9556" cy="20.9556" r="20.9556" transform="matrix(-1 0 0 1 55.8215 25.7582)" fill="#FF3A3A"/>
<path d="M66.0856 4.375C66.4535 37.4003 26.7787 45.258 10.5962 26.8154C10.2809 26.456 10.2841 25.9129 10.5979 25.5523C28.8123 4.62214 68.3074 17.1492 64.8026 47.1415" stroke="black" stroke-width="5" stroke-linecap="round"/>
<path d="M3.21874 46.2862C2.85101 79.2952 42.0688 86.3258 58.2567 67.8987C58.5829 67.5275 58.5683 66.9642 58.228 66.6058C39.1734 46.5359 -0.284456 58.6462 3.21874 88.625" stroke="black" stroke-width="5" stroke-linecap="round"/>
<circle cx="2.13832" cy="2.13832" r="2.13832" transform="matrix(-1 0 0 1 22.4639 23.1923)" fill="black"/>
<circle cx="2.13832" cy="2.13832" r="2.13832" transform="matrix(-1 0 0 1 50.6897 65.1034)" fill="black"/>
<path d="M107.288 39.94V33.74C107.288 31.9267 107.835 30.4733 108.928 29.38C110.021 28.2867 111.475 27.74 113.288 27.74H117.648C119.461 27.74 120.915 28.2867 122.008 29.38C123.101 30.4733 123.648 31.9267 123.648 33.74V38.86L118.248 37.02V35.14C118.248 34.5267 118.061 34.0467 117.688 33.7C117.341 33.3267 116.861 33.14 116.248 33.14H114.688C114.075 33.14 113.581 33.3267 113.208 33.7C112.861 34.0467 112.688 34.5267 112.688 35.14V39.14C112.688 39.9933 112.941 40.7133 113.448 41.3C113.955 41.8867 114.621 42.2467 115.448 42.38L116.928 42.62C117.941 42.78 118.861 43.0867 119.688 43.54C120.515 43.9933 121.221 44.5667 121.808 45.26C122.395 45.9533 122.848 46.7533 123.168 47.66C123.488 48.54 123.648 49.4867 123.648 50.5V56.7C123.648 58.5133 123.101 59.9667 122.008 61.06C120.915 62.1533 119.461 62.7 117.648 62.7H113.288C111.475 62.7 110.021 62.1533 108.928 61.06C107.835 59.9667 107.288 58.5133 107.288 56.7V53.42H112.688V55.3C112.688 55.9133 112.861 56.4067 113.208 56.78C113.581 57.1267 114.075 57.3 114.688 57.3H116.248C116.861 57.3 117.341 57.1267 117.688 56.78C118.061 56.4067 118.248 55.9133 118.248 55.3V51.3C118.248 50.4467 117.995 49.7267 117.488 49.14C116.981 48.5533 116.315 48.1933 115.488 48.06L114.008 47.82C112.995 47.66 112.075 47.3533 111.248 46.9C110.421 46.4467 109.715 45.8733 109.128 45.18C108.541 44.4867 108.088 43.7 107.768 42.82C107.448 41.9133 107.288 40.9533 107.288 39.94ZM166.669 39.94V33.74C166.669 31.9267 167.216 30.4733 168.309 29.38C169.403 28.2867 170.856 27.74 172.669 27.74H177.029C178.843 27.74 180.296 28.2867 181.389 29.38C182.483 30.4733 183.029 31.9267 183.029 33.74V38.86L177.629 37.02V35.14C177.629 34.5267 177.443 34.0467 177.069 33.7C176.723 33.3267 176.243 33.14 175.629 33.14H174.069C173.456 33.14 172.963 33.3267 172.589 33.7C172.243 34.0467 172.069 34.5267 172.069 35.14V39.14C172.069 39.9933 172.323 40.7133 172.829 41.3C173.336 41.8867 174.003 42.2467 174.829 42.38L176.309 42.62C177.323 42.78 178.243 43.0867 179.069 43.54C179.896 43.9933 180.603 44.5667 181.189 45.26C181.776 45.9533 182.229 46.7533 182.549 47.66C182.869 48.54 183.029 49.4867 183.029 50.5V56.7C183.029 58.5133 182.483 59.9667 181.389 61.06C180.296 62.1533 178.843 62.7 177.029 62.7H172.669C170.856 62.7 169.403 62.1533 168.309 61.06C167.216 59.9667 166.669 58.5133 166.669 56.7V53.42H172.069V55.3C172.069 55.9133 172.243 56.4067 172.589 56.78C172.963 57.1267 173.456 57.3 174.069 57.3H175.629C176.243 57.3 176.723 57.1267 177.069 56.78C177.443 56.4067 177.629 55.9133 177.629 55.3V51.3C177.629 50.4467 177.376 49.7267 176.869 49.14C176.363 48.5533 175.696 48.1933 174.869 48.06L173.389 47.82C172.376 47.66 171.456 47.3533 170.629 46.9C169.803 46.4467 169.096 45.8733 168.509 45.18C167.923 44.4867 167.469 43.7 167.149 42.82C166.829 41.9133 166.669 40.9533 166.669 39.94ZM196.219 27.94H201.659V42.5H207.139V27.94H212.579V62.5H207.139V47.94H201.659V62.5H196.219V27.94ZM226.157 62.5V27.94H231.597V62.5H226.157Z" fill="black"/>
<path d="M142.278 27.98V55.06C142.278 55.6733 142.451 56.1667 142.798 56.54C143.171 56.8867 143.665 57.06 144.278 57.06H146.038C146.651 57.06 147.131 56.8867 147.478 56.54C147.851 56.1667 148.038 55.6733 148.038 55.06V27.98H153.478V56.5C153.478 58.3133 152.931 59.7667 151.838 60.86C150.745 61.9533 149.291 62.5 147.478 62.5H142.838C141.025 62.5 139.571 61.9533 138.478 60.86C137.385 59.7667 136.838 58.3133 136.838 56.5V27.98H142.278Z" fill="#FF3A3A"/>
</svg>
